<?xml version="1.0" encoding="UTF-8" standalone="no"?>
<!DOCTYPE svg PUBLIC "-//W3C//DTD SVG 1.1//EN" "http://www.w3.org/Graphics/SVG/1.1/DTD/svg11.dtd">
<svg width="100%" height="100%" viewBox="0 0 960 839" version="1.1" xmlns="http://www.w3.org/2000/svg" xmlns:xlink="http://www.w3.org/1999/xlink" xml:space="preserve" xmlns:serif="http://www.serif.com/" style="fill-rule:evenodd;clip-rule:evenodd;stroke-linejoin:round;stroke-miterlimit:2;">
    <g transform="matrix(1,0,0,1,4.6471e-05,0)">
        <g>
            <g id="logo-ring">
                <path d="M116.864,503.906C112.122,512.118 112.122,522.236 116.864,530.449L286.824,824.829C291.566,833.041 300.328,838.101 309.811,838.101L649.733,838.101C659.215,838.101 667.978,833.041 672.719,824.829L842.68,530.449C847.421,522.236 847.421,512.118 842.68,503.906L672.719,209.525C667.978,201.313 659.215,196.254 649.733,196.254L309.811,196.254C300.328,196.254 291.566,201.313 286.824,209.525L116.864,503.906ZM170.499,517.177L325.135,249.339L634.408,249.339L789.044,517.177L634.408,785.015L325.135,785.015L170.499,517.177Z" style="fill:rgb(28,28,39);"/>
            </g>
            <g id="logo-l0-pips">
                <path d="M366.465,347.466L593.079,347.466C607.728,347.466 619.622,335.573 619.622,320.923C619.622,306.274 607.728,294.381 593.079,294.381L366.465,294.381C351.815,294.381 339.922,306.274 339.922,320.923C339.922,335.573 351.815,347.466 366.465,347.466Z" style="fill:rgb(179,141,100);"/>
                <path d="M616.066,726.702L729.373,530.449C736.697,517.762 732.344,501.515 719.657,494.19C706.971,486.866 690.724,491.219 683.399,503.906L570.092,700.16C562.768,712.846 567.121,729.093 579.808,736.418C592.494,743.742 608.741,739.389 616.066,726.702Z" style="fill:rgb(179,141,100);"/>
                <path d="M230.171,530.449L343.478,726.702C350.803,739.389 367.049,743.742 379.736,736.418C392.423,729.093 396.776,712.846 389.451,700.16L276.144,503.906C268.819,491.219 252.573,486.866 239.886,494.19C227.199,501.515 222.846,517.762 230.171,530.449Z" style="fill:rgb(179,141,100);"/>
            </g>
            <g id="logo-l1-pips">
                <path d="M366.465,151.212L593.079,151.212C607.728,151.212 619.622,139.319 619.622,124.67C619.622,110.02 607.728,98.127 593.079,98.127L366.465,98.127C351.815,98.127 339.922,110.02 339.922,124.67C339.922,139.319 351.815,151.212 366.465,151.212Z" style="fill:rgb(179,141,100);"/>
                <path d="M853.36,602.033L740.053,798.286C732.728,810.973 737.082,827.22 749.768,834.544C762.455,841.869 778.702,837.516 786.026,824.829L899.334,628.575C906.658,615.889 902.305,599.642 889.618,592.317C876.932,584.993 860.685,589.346 853.36,602.033Z" style="fill:rgb(179,141,100);"/>
                <path d="M219.491,798.286L106.183,602.033C98.859,589.346 82.612,584.993 69.925,592.317C57.239,599.642 52.885,615.889 60.21,628.575L173.517,824.829C180.842,837.516 197.089,841.869 209.775,834.544C222.462,827.22 226.815,810.973 219.491,798.286Z" style="fill:rgb(179,141,100);"/>
            </g>
            <g id="logo-l2-pips">
                <path d="M423.118,53.085L536.425,53.085C551.075,53.085 562.968,41.192 562.968,26.543C562.968,11.893 551.075,0 536.425,0L423.118,0C408.469,0 396.575,11.893 396.575,26.543C396.575,41.192 408.469,53.085 423.118,53.085Z" style="fill:rgb(179,141,100);"/>
                <path d="M899.334,824.829L955.987,726.702C963.312,714.016 958.958,697.769 946.272,690.444C933.585,683.12 917.338,687.473 910.014,700.16L853.36,798.286C846.035,810.973 850.389,827.22 863.075,834.544C875.762,841.869 892.009,837.516 899.334,824.829Z" style="fill:rgb(179,141,100);"/>
                <path d="M3.556,726.702L60.21,824.829C67.535,837.516 83.781,841.869 96.468,834.544C109.155,827.22 113.508,810.973 106.183,798.286L49.53,700.16C42.205,687.473 25.958,683.12 13.272,690.444C0.585,697.769 -3.768,714.016 3.556,726.702Z" style="fill:rgb(179,141,100);"/>
            </g>
        </g>
    </g>
</svg>
