<?xml version="1.0" encoding="UTF-8" standalone="no"?>
<!DOCTYPE svg PUBLIC "-//W3C//DTD SVG 1.1//EN" "http://www.w3.org/Graphics/SVG/1.1/DTD/svg11.dtd">
<svg width="100%" height="100%" viewBox="0 0 3042 873" version="1.1" xmlns="http://www.w3.org/2000/svg" xmlns:xlink="http://www.w3.org/1999/xlink" xml:space="preserve" xmlns:serif="http://www.serif.com/" style="fill-rule:evenodd;clip-rule:evenodd;stroke-linejoin:round;stroke-miterlimit:2;">
    <g>
        <g>
            <g id="logo-ring">
                <path d="M116.864,503.906C112.122,512.118 112.122,522.236 116.864,530.449L286.824,824.829C291.566,833.041 300.328,838.101 309.811,838.101L649.733,838.101C659.215,838.101 667.978,833.041 672.719,824.829L842.68,530.449C847.421,522.236 847.421,512.118 842.68,503.906L672.719,209.525C667.978,201.313 659.215,196.254 649.733,196.254L309.811,196.254C300.328,196.254 291.566,201.313 286.824,209.525L116.864,503.906ZM170.499,517.177L325.135,249.339L634.408,249.339L789.044,517.177L634.408,785.015L325.135,785.015L170.499,517.177Z" style="fill:white;"/>
            </g>
            <g id="logo-l0-pips">
                <path d="M366.465,347.466L593.079,347.466C607.728,347.466 619.622,335.573 619.622,320.923C619.622,306.274 607.728,294.381 593.079,294.381L366.465,294.381C351.815,294.381 339.922,306.274 339.922,320.923C339.922,335.573 351.815,347.466 366.465,347.466Z" style="fill:rgb(179,141,100);"/>
                <path d="M616.066,726.702L729.373,530.449C736.697,517.762 732.344,501.515 719.657,494.19C706.971,486.866 690.724,491.219 683.399,503.906L570.092,700.16C562.768,712.846 567.121,729.093 579.808,736.418C592.494,743.742 608.741,739.389 616.066,726.702Z" style="fill:rgb(179,141,100);"/>
                <path d="M230.171,530.449L343.478,726.702C350.803,739.389 367.049,743.742 379.736,736.418C392.423,729.093 396.776,712.846 389.451,700.16L276.144,503.906C268.819,491.219 252.573,486.866 239.886,494.19C227.199,501.515 222.846,517.762 230.171,530.449Z" style="fill:rgb(179,141,100);"/>
            </g>
            <g id="logo-l1-pips">
                <path d="M366.465,151.212L593.079,151.212C607.728,151.212 619.622,139.319 619.622,124.67C619.622,110.02 607.728,98.127 593.079,98.127L366.465,98.127C351.815,98.127 339.922,110.02 339.922,124.67C339.922,139.319 351.815,151.212 366.465,151.212Z" style="fill:rgb(179,141,100);"/>
                <path d="M853.36,602.033L740.053,798.286C732.728,810.973 737.082,827.22 749.768,834.544C762.455,841.869 778.702,837.516 786.026,824.829L899.334,628.575C906.658,615.889 902.305,599.642 889.618,592.317C876.932,584.993 860.685,589.346 853.36,602.033Z" style="fill:rgb(179,141,100);"/>
                <path d="M219.491,798.286L106.183,602.033C98.859,589.346 82.612,584.993 69.925,592.317C57.239,599.642 52.885,615.889 60.21,628.575L173.517,824.829C180.842,837.516 197.089,841.869 209.775,834.544C222.462,827.22 226.815,810.973 219.491,798.286Z" style="fill:rgb(179,141,100);"/>
            </g>
            <g id="logo-l2-pips">
                <path d="M423.118,53.085L536.425,53.085C551.075,53.085 562.968,41.192 562.968,26.543C562.968,11.893 551.075,0 536.425,0L423.118,0C408.469,0 396.575,11.893 396.575,26.543C396.575,41.192 408.469,53.085 423.118,53.085Z" style="fill:rgb(179,141,100);"/>
                <path d="M899.334,824.829L955.987,726.702C963.312,714.016 958.958,697.769 946.272,690.444C933.585,683.12 917.338,687.473 910.014,700.16L853.36,798.286C846.035,810.973 850.389,827.22 863.075,834.544C875.762,841.869 892.009,837.516 899.334,824.829Z" style="fill:rgb(179,141,100);"/>
                <path d="M3.556,726.702L60.21,824.829C67.535,837.516 83.781,841.869 96.468,834.544C109.155,827.22 113.508,810.973 106.183,798.286L49.53,700.16C42.205,687.473 25.958,683.12 13.272,690.444C0.585,697.769 -3.768,714.016 3.556,726.702Z" style="fill:rgb(179,141,100);"/>
            </g>
        </g>
        <g>
            <path d="M1097.7,553.439C1094.32,553.439 1091.69,552.336 1089.81,550.13C1087.94,547.923 1087.13,544.982 1087.38,541.304L1105.74,278.757C1106,275.08 1107.22,272.138 1109.41,269.932C1111.59,267.726 1114.37,266.623 1117.76,266.623L1126.38,266.623C1129.77,266.623 1132.39,267.726 1134.27,269.932C1136.15,272.138 1136.96,275.08 1136.7,278.757L1134.89,304.681C1144.92,291.811 1156.73,281.331 1170.32,273.242C1183.91,265.152 1201.53,261.107 1223.18,261.107C1246.19,261.107 1265.01,266.531 1279.64,277.378C1294.27,288.226 1304.75,302.934 1311.06,321.504C1317.37,340.073 1319.71,361.125 1318.06,384.659L1307.11,541.304C1306.85,544.982 1305.63,547.923 1303.45,550.13C1301.26,552.336 1298.48,553.439 1295.1,553.439L1286.47,553.439C1283.09,553.439 1280.46,552.336 1278.58,550.13C1276.71,547.923 1275.9,544.982 1276.15,541.304L1286.91,387.417C1288.97,357.999 1283.99,334.925 1271.96,318.195C1259.94,301.464 1241.24,293.098 1215.87,293.098C1191.85,293.098 1171.9,301.464 1156.02,318.195C1140.13,334.925 1131.16,357.999 1129.1,387.417L1118.34,541.304C1118.08,544.982 1116.86,547.923 1114.68,550.13C1112.49,552.336 1109.71,553.439 1106.33,553.439L1097.7,553.439Z" style="fill:white;"/>
            <path d="M1478.4,558.955C1445.59,558.955 1420.35,547.28 1402.7,523.93C1385.05,500.58 1376.2,469.968 1376.14,432.094C1376.19,426.578 1376.53,419.224 1377.18,410.031C1377.82,400.838 1378.5,393.484 1379.23,387.968C1382.67,362.964 1389.62,340.901 1400.09,321.78C1410.56,302.659 1424.21,287.766 1441.02,277.103C1457.84,266.439 1477.24,261.107 1499.23,261.107C1522.91,261.107 1542.64,266.807 1558.42,278.206C1574.2,289.605 1585.82,305.968 1593.3,327.295C1600.77,348.623 1603.48,373.995 1601.42,403.412L1600.84,411.686C1600.59,415.363 1599.28,418.304 1596.93,420.511C1594.58,422.717 1591.71,423.82 1588.32,423.82L1407.67,423.82L1407.29,429.336C1406.81,445.883 1409.26,461.603 1414.65,476.495C1420.03,491.387 1428.32,503.522 1439.5,512.899C1450.69,522.275 1464.4,526.964 1480.64,526.964C1495.18,526.964 1507.44,524.573 1517.42,519.793C1527.4,515.013 1535.46,509.773 1541.61,504.073C1547.76,498.374 1551.78,494.053 1553.68,491.112C1557.06,486.331 1559.62,483.482 1561.38,482.562C1563.14,481.643 1565.88,481.183 1569.6,481.183L1577.72,481.183C1580.76,481.183 1583.31,482.195 1585.37,484.217C1587.43,486.239 1588.17,488.905 1587.6,492.215C1586.9,497.363 1583.84,503.706 1578.4,511.244C1572.97,518.782 1565.52,526.228 1556.04,533.582C1546.56,540.937 1535.22,547.004 1522.03,551.784C1508.85,556.564 1494.3,558.955 1478.4,558.955ZM1409.83,392.932L1571.2,392.932L1571.36,390.726C1572.64,372.34 1570.58,355.793 1565.18,341.085C1559.79,326.376 1551.3,314.701 1539.72,306.06C1528.15,297.419 1513.9,293.098 1496.99,293.098C1480.08,293.098 1465.31,297.419 1452.7,306.06C1440.08,314.701 1430.13,326.376 1422.85,341.085C1415.56,355.793 1411.27,372.34 1409.99,390.726L1409.83,392.932Z" style="fill:white;"/>
            <path d="M1751.41,558.955C1728.41,558.955 1709.76,553.531 1695.46,542.683C1681.16,531.836 1671.04,517.035 1665.07,498.282C1659.11,479.529 1656.94,458.569 1658.56,435.403L1669.52,278.757C1669.77,275.08 1670.99,272.138 1673.18,269.932C1675.36,267.726 1678.14,266.623 1681.53,266.623L1690.15,266.623C1693.54,266.623 1696.17,267.726 1698.04,269.932C1699.92,272.138 1700.73,275.08 1700.47,278.757L1689.71,432.645C1685.31,495.524 1708.32,526.964 1758.72,526.964C1782.74,526.964 1802.61,518.598 1818.33,501.867C1834.04,485.136 1842.93,462.062 1844.99,432.645L1855.75,278.757C1856,275.08 1857.22,272.138 1859.41,269.932C1861.59,267.726 1864.38,266.623 1867.76,266.623L1876.38,266.623C1879.77,266.623 1882.4,267.726 1884.27,269.932C1886.15,272.138 1886.96,275.08 1886.7,278.757L1868.34,541.304C1868.08,544.982 1866.86,547.923 1864.68,550.13C1862.5,552.336 1859.71,553.439 1856.33,553.439L1847.7,553.439C1844.32,553.439 1841.69,552.336 1839.82,550.13C1837.94,547.923 1837.13,544.982 1837.39,541.304L1839.2,515.381C1829.17,528.251 1817.52,538.73 1804.27,546.82C1791.02,554.91 1773.4,558.955 1751.41,558.955Z" style="fill:white;"/>
            <path d="M2033.43,553.439C2015.84,553.439 2002.25,549.394 1992.67,541.304C1983.09,533.215 1976.75,522.183 1973.67,508.21C1970.59,494.237 1969.65,478.609 1970.86,461.327L1982.24,298.614L1942.66,298.614C1939.27,298.614 1936.64,297.511 1934.77,295.304C1932.89,293.098 1932.08,290.156 1932.34,286.479L1932.88,278.757C1933.14,275.08 1934.36,272.138 1936.54,269.932C1938.73,267.726 1941.51,266.623 1944.89,266.623L1984.47,266.623L1990.95,173.959C1991.21,170.282 1992.43,167.34 1994.62,165.134C1996.8,162.928 1999.58,161.825 2002.97,161.825L2011.59,161.825C2014.98,161.825 2017.61,162.928 2019.48,165.134C2021.36,167.34 2022.16,170.282 2021.91,173.959L2015.43,266.623L2078.35,266.623C2081.73,266.623 2084.36,267.726 2086.24,269.932C2088.11,272.138 2088.92,275.08 2088.67,278.757L2088.13,286.479C2087.87,290.156 2086.65,293.098 2084.46,295.304C2082.28,297.511 2079.5,298.614 2076.11,298.614L2013.19,298.614L2001.97,459.121C2000.6,478.609 2002.5,493.869 2007.65,504.901C2012.8,515.932 2022.98,521.448 2038.2,521.448L2065.61,521.448C2068.99,521.448 2071.62,522.551 2073.49,524.757C2075.37,526.964 2076.18,529.905 2075.92,533.582L2075.38,541.304C2075.12,544.982 2073.9,547.923 2071.72,550.13C2069.54,552.336 2066.75,553.439 2063.37,553.439L2033.43,553.439Z" style="fill:white;"/>
            <path d="M2132.89,553.439C2129.51,553.439 2126.88,552.336 2125,550.13C2123.13,547.923 2122.32,544.982 2122.57,541.304L2140.89,279.309C2141.15,275.632 2142.38,272.598 2144.58,270.208C2146.77,267.818 2149.56,266.623 2152.95,266.623L2161.07,266.623C2164.45,266.623 2167.16,267.818 2169.19,270.208C2171.22,272.598 2172.11,275.632 2171.85,279.309L2170.07,304.681C2177.07,291.811 2186.53,282.251 2198.47,275.999C2210.41,269.748 2224.83,266.623 2241.75,266.623L2260.52,266.623C2263.91,266.623 2266.54,267.726 2268.41,269.932C2270.29,272.138 2271.1,275.08 2270.84,278.757L2270.3,286.479C2270.04,290.156 2268.82,293.098 2266.64,295.304C2264.45,297.511 2261.67,298.614 2258.29,298.614L2236.47,298.614C2216.17,298.614 2199.65,305.049 2186.91,317.919C2174.17,330.789 2167.03,348.255 2165.49,370.318L2153.53,541.304C2153.27,544.982 2151.97,547.923 2149.61,550.13C2147.26,552.336 2144.39,553.439 2141.01,553.439L2132.89,553.439Z" style="fill:white;"/>
            <path d="M2324.05,540.207C2309.71,529.54 2299.18,515.145 2292.33,497.179C2285.04,478.058 2281.88,456.73 2282.85,433.197C2282.89,427.681 2283.27,419.959 2283.96,410.031C2284.66,400.103 2285.36,392.381 2286.09,386.865C2288.44,362.964 2294.59,341.544 2304.54,322.607C2314.49,303.67 2328.05,288.686 2345.23,277.654C2362.41,266.623 2383.18,261.107 2407.53,261.107C2431.89,261.107 2451.89,266.623 2467.52,277.654C2483.16,288.686 2494.63,303.67 2501.93,322.607C2509.23,341.544 2512.39,362.964 2511.39,386.865C2511.35,392.381 2510.97,400.103 2510.28,410.031C2509.59,419.959 2508.88,427.681 2508.15,433.197C2505.83,456.73 2499.69,478.058 2489.72,497.179C2484.65,506.913 2478.64,515.6 2471.67,523.215L2324.05,540.207ZM2388.94,526.964C2412.62,526.964 2432.49,518.69 2448.53,502.143C2464.57,485.596 2474.19,461.695 2477.39,430.439C2478.12,424.923 2478.76,418.121 2479.33,410.031C2479.89,401.941 2480.2,395.138 2480.25,389.623C2481.44,357.999 2475.17,334.006 2461.43,317.643C2447.69,301.28 2428.98,293.098 2405.3,293.098C2381.62,293.098 2361.76,301.28 2345.73,317.643C2329.7,334.006 2320.08,357.999 2316.85,389.623C2316.12,395.138 2315.48,401.941 2314.91,410.031C2314.35,418.121 2314.04,424.923 2313.99,430.439C2312.82,461.695 2319.1,485.596 2332.83,502.143C2346.56,518.69 2365.26,526.964 2388.94,526.964Z" style="fill:white;"/>
            <path d="M2567.58,512.176L2583.9,278.757C2584.16,275.08 2585.38,272.138 2587.56,269.932C2589.75,267.726 2592.53,266.623 2595.91,266.623L2604.54,266.623C2607.92,266.623 2610.55,267.726 2612.43,269.932C2614.3,272.138 2615.11,275.08 2614.86,278.757L2613.04,304.681C2623.08,291.811 2634.89,281.331 2648.48,273.242C2662.07,265.152 2679.69,261.107 2701.34,261.107C2724.35,261.107 2743.16,266.531 2757.8,277.378C2772.43,288.226 2782.91,302.934 2789.22,321.504C2795.53,340.073 2797.87,361.125 2796.22,384.659L2789.09,486.673L2784.73,487.182L2757.88,490.272L2765.07,387.417C2767.13,357.999 2762.15,334.925 2750.12,318.195C2738.1,301.464 2719.4,293.098 2694.03,293.098C2670.01,293.098 2650.06,301.464 2634.17,318.195C2618.29,334.925 2609.32,357.999 2607.26,387.417L2598.78,508.584L2567.58,512.176Z" style="fill:white;"/>
            <path d="M2711.97,872.53C2691.42,872.53 2675.03,868.393 2662.82,860.119C2650.6,851.846 2643.01,839.16 2640.05,822.061C2637.09,804.962 2639.44,783.038 2647.11,756.286L2695.27,588.334C2696.14,585.3 2697.58,582.956 2699.57,581.301C2701.57,579.646 2703.84,578.819 2706.37,578.819L2713.22,578.819C2716.01,578.819 2717.93,579.646 2718.98,581.301C2720.03,582.956 2720.12,585.3 2719.25,588.334L2670.73,757.527C2661.88,788.415 2662.01,811.168 2671.14,825.784C2680.27,840.401 2696.25,847.709 2719.09,847.709C2741.67,847.709 2761.72,840.401 2779.23,825.784C2796.74,811.168 2809.92,788.415 2818.78,757.527L2867.3,588.334C2868.16,585.3 2869.66,582.956 2871.79,581.301C2873.91,579.646 2876.24,578.819 2878.78,578.819L2885.63,578.819C2888.16,578.819 2889.96,579.646 2891.01,581.301C2892.05,582.956 2892.14,585.3 2891.27,588.334L2843.11,756.286C2835.44,783.038 2825.28,804.962 2812.64,822.061C2800,839.16 2785.26,851.846 2768.43,860.119C2751.6,868.393 2732.78,872.53 2711.97,872.53Z" style="fill:rgb(179,141,100);fill-rule:nonzero;"/>
            <path d="M2884.8,868.393C2882.26,868.393 2880.47,867.566 2879.42,865.911C2878.38,864.256 2878.25,862.05 2879.04,859.292L2956.85,587.92C2957.64,585.162 2959.04,582.956 2961.03,581.301C2963.03,579.646 2965.3,578.819 2967.83,578.819L2975.07,578.819C2977.6,578.819 2979.39,579.646 2980.44,581.301C2981.49,582.956 2981.62,585.162 2980.83,587.92L2903.01,859.292C2902.22,862.05 2900.83,864.256 2898.83,865.911C2896.84,867.566 2894.57,868.393 2892.03,868.393L2884.8,868.393Z" style="fill:rgb(179,141,100);fill-rule:nonzero;"/>
            <path d="M3024.98,498.699C3024.98,498.699 2644.84,542.524 2223.78,589.486C2117.7,601.316 2009.04,613.348 1903.18,624.672C1829.95,632.504 1758.09,640.249 1689.32,646.948C1584.25,657.184 1486.51,665.895 1402.52,672.955C1229.73,687.481 1115.33,695.2 1115.33,695.2C1106.94,696.063 1100.83,703.573 1101.69,711.96C1102.56,720.347 1110.07,726.456 1118.45,725.593C1118.45,725.593 1232.03,709.854 1404.16,688.888C1487.83,678.697 1585.3,667.32 1690.25,655.944C1758.94,648.499 1830.87,641.449 1904.16,634.205C2010.11,623.732 2118.95,613.385 2225.2,603.367C2647.01,563.598 3028.11,529.092 3028.11,529.092C3036.49,528.229 3042.6,520.719 3041.74,512.332C3040.88,503.945 3033.37,497.836 3024.98,498.699Z" style="fill:white;"/>
        </g>
    </g>
</svg>
